<svg width="91" height="84" viewBox="0 0 91 84" fill="none" xmlns="http://www.w3.org/2000/svg">
<path fill-rule="evenodd" clip-rule="evenodd" d="M38.9125 69.2249L89.8161 40.6348L53.456 20.2131L2.55245 48.8032L38.9125 69.2249Z" fill="white" stroke="#f6866a" stroke-width="1.69332" stroke-linecap="round" stroke-linejoin="round"/>
<path fill-rule="evenodd" clip-rule="evenodd" d="M2.55166 48.8032V56.9719L38.9117 77.3936L89.8153 48.8035V40.6348" fill="white"/>
<path d="M2.55166 48.8032V56.9719L38.9117 77.3936L89.8153 48.8035V40.6348" stroke="#FFF0EC" stroke-width="1.69332" stroke-linecap="round" stroke-linejoin="round"/>
<path fill-rule="evenodd" clip-rule="evenodd" d="M38.9125 82.8381L2.55245 62.4164C2.55245 62.4164 -0.409819 55.916 2.55245 51.525L38.9125 71.9468L89.8161 43.3567V54.2481L38.9125 82.8381Z" fill="white" stroke="#f6866a" stroke-width="1.69332" stroke-linecap="round" stroke-linejoin="round"/>
<path fill-rule="evenodd" clip-rule="evenodd" d="M38.9125 50.1633L89.8161 21.5729L53.4552 1.15268L2.55166 29.7416L38.9125 50.1633Z" fill="white" stroke="#f6866a" stroke-width="1.69332" stroke-linecap="round" stroke-linejoin="round"/>
<path fill-rule="evenodd" clip-rule="evenodd" d="M38.9125 50.1633L89.8161 21.5733V32.4646L38.9125 61.0547L2.55246 40.6329C2.55246 40.6329 0.154445 33.8582 2.55246 29.7416L38.9125 50.1633Z" fill="white" stroke="#f6866a" stroke-width="1.69332" stroke-linecap="round" stroke-linejoin="round"/>
<path fill-rule="evenodd" clip-rule="evenodd" d="M38.9125 71.9491L2.55245 51.5273C2.55245 51.5273 -0.409819 45.027 2.55245 40.636L38.9125 61.0577L89.8161 32.4677L89.8161 43.359L38.9125 71.9491" fill="white"/>
<path d="M38.9125 71.9491L2.55245 51.5273C2.55245 51.5273 -0.409819 45.027 2.55245 40.636L38.9125 61.0577L89.8161 32.4677L89.8161 43.359L38.9125 71.9491" stroke="#f6866a" stroke-width="1.69332" stroke-linecap="round" stroke-linejoin="round"/>
<path fill-rule="evenodd" clip-rule="evenodd" d="M61.9392 5.91788L40.1235 18.1709L48.6074 18.8516L49.8194 23.6168L71.6355 11.3638L61.9392 5.91788Z" fill="white" stroke="#f6866a" stroke-width="1.69332" stroke-linejoin="round"/>
<g filter="url(#filter0_d_1_2)">
<path d="M28.076 37V26.0909H32.2521C33.0405 26.0909 33.6957 26.2152 34.2177 26.4638C34.7433 26.7088 35.1357 27.0444 35.3949 27.4705C35.6577 27.8967 35.7891 28.3796 35.7891 28.9194C35.7891 29.3633 35.7038 29.7433 35.5334 30.0593C35.3629 30.3718 35.1339 30.6257 34.8462 30.821C34.5586 31.0163 34.2372 31.1566 33.8821 31.2418V31.3484C34.2692 31.3697 34.6403 31.4886 34.9954 31.7053C35.354 31.9183 35.647 32.2202 35.8743 32.6108C36.1016 33.0014 36.2152 33.4737 36.2152 34.0277C36.2152 34.5923 36.0785 35.1001 35.805 35.5511C35.5316 35.9986 35.1197 36.3519 34.5692 36.6112C34.0188 36.8704 33.3263 37 32.4918 37H28.076ZM30.0522 35.3487H32.1776C32.8949 35.3487 33.4116 35.212 33.7276 34.9386C34.0472 34.6616 34.207 34.3065 34.207 33.8732C34.207 33.5501 34.1271 33.2589 33.9673 32.9996C33.8075 32.7369 33.5803 32.5309 33.2855 32.3817C32.9908 32.229 32.6392 32.1527 32.2308 32.1527H30.0522V35.3487ZM30.0522 30.7305H32.0071C32.348 30.7305 32.6552 30.6683 32.9286 30.544C33.2021 30.4162 33.4169 30.2369 33.5732 30.006C33.733 29.7717 33.8129 29.4947 33.8129 29.1751C33.8129 28.7525 33.6637 28.4045 33.3654 28.131C33.0707 27.8576 32.6321 27.7209 32.0497 27.7209H30.0522V30.7305ZM43.863 29.0898C43.8133 28.6246 43.6038 28.2624 43.2345 28.0032C42.8687 27.744 42.3928 27.6143 41.8069 27.6143C41.395 27.6143 41.0416 27.6765 40.7469 27.8008C40.4521 27.9251 40.2267 28.0937 40.0704 28.3068C39.9142 28.5199 39.8343 28.7631 39.8307 29.0366C39.8307 29.2638 39.8822 29.4609 39.9852 29.6278C40.0917 29.7947 40.2355 29.9368 40.4166 30.054C40.5977 30.1676 40.7984 30.2635 41.0186 30.3416C41.2387 30.4197 41.4607 30.4854 41.6844 30.5387L42.7071 30.7944C43.1191 30.8903 43.515 31.0199 43.895 31.1832C44.2785 31.3466 44.6212 31.5526 44.923 31.8011C45.2284 32.0497 45.4699 32.3498 45.6475 32.7013C45.825 33.0529 45.9138 33.4648 45.9138 33.9371C45.9138 34.5763 45.7504 35.1392 45.4237 35.6257C45.097 36.1087 44.6247 36.4869 44.0068 36.7603C43.3925 37.0302 42.6485 37.1651 41.7749 37.1651C40.9262 37.1651 40.1894 37.0337 39.5644 36.771C38.9429 36.5082 38.4564 36.1246 38.1048 35.6204C37.7568 35.1161 37.5686 34.5018 37.5402 33.7773H39.4845C39.5129 34.1573 39.6301 34.4734 39.836 34.7255C40.042 34.9776 40.3101 35.1658 40.6404 35.2901C40.9742 35.4144 41.347 35.4766 41.759 35.4766C42.1887 35.4766 42.5651 35.4126 42.8882 35.2848C43.2149 35.1534 43.4706 34.9723 43.6553 34.7415C43.8399 34.5071 43.934 34.2337 43.9376 33.9212C43.934 33.6371 43.8506 33.4027 43.6872 33.218C43.5239 33.0298 43.2948 32.8736 43.0001 32.7493C42.7089 32.6214 42.368 32.5078 41.9774 32.4084L40.7362 32.0888C39.8378 31.858 39.1276 31.5082 38.6056 31.0394C38.0871 30.5671 37.8279 29.9403 37.8279 29.1591C37.8279 28.5163 38.0019 27.9535 38.3499 27.4705C38.7014 26.9876 39.1791 26.6129 39.7828 26.3466C40.3865 26.0767 41.07 25.9418 41.8335 25.9418C42.6077 25.9418 43.286 26.0767 43.8683 26.3466C44.4543 26.6129 44.9142 26.984 45.248 27.4599C45.5818 27.9322 45.754 28.4755 45.7646 29.0898H43.863ZM53.6042 29.0898C53.5545 28.6246 53.345 28.2624 52.9757 28.0032C52.6099 27.744 52.1341 27.6143 51.5481 27.6143C51.1362 27.6143 50.7828 27.6765 50.4881 27.8008C50.1934 27.9251 49.9679 28.0937 49.8116 28.3068C49.6554 28.5199 49.5755 28.7631 49.5719 29.0366C49.5719 29.2638 49.6234 29.4609 49.7264 29.6278C49.8329 29.7947 49.9767 29.9368 50.1578 30.054C50.339 30.1676 50.5396 30.2635 50.7598 30.3416C50.9799 30.4197 51.2019 30.4854 51.4256 30.5387L52.4483 30.7944C52.8603 30.8903 53.2562 31.0199 53.6362 31.1832C54.0197 31.3466 54.3624 31.5526 54.6642 31.8011C54.9696 32.0497 55.2111 32.3498 55.3887 32.7013C55.5662 33.0529 55.655 33.4648 55.655 33.9371C55.655 34.5763 55.4917 35.1392 55.165 35.6257C54.8382 36.1087 54.3659 36.4869 53.748 36.7603C53.1337 37.0302 52.3897 37.1651 51.5162 37.1651C50.6674 37.1651 49.9306 37.0337 49.3056 36.771C48.6841 36.5082 48.1976 36.1246 47.8461 35.6204C47.498 35.1161 47.3098 34.5018 47.2814 33.7773H49.2257C49.2541 34.1573 49.3713 34.4734 49.5772 34.7255C49.7832 34.9776 50.0513 35.1658 50.3816 35.2901C50.7154 35.4144 51.0882 35.4766 51.5002 35.4766C51.9299 35.4766 52.3063 35.4126 52.6294 35.2848C52.9561 35.1534 53.2118 34.9723 53.3965 34.7415C53.5811 34.5071 53.6752 34.2337 53.6788 33.9212C53.6752 33.6371 53.5918 33.4027 53.4284 33.218C53.2651 33.0298 53.036 32.8736 52.7413 32.7493C52.4501 32.6214 52.1092 32.5078 51.7186 32.4084L50.4775 32.0888C49.579 31.858 48.8688 31.5082 48.3468 31.0394C47.8283 30.5671 47.5691 29.9403 47.5691 29.1591C47.5691 28.5163 47.7431 27.9535 48.0911 27.4705C48.4426 26.9876 48.9203 26.6129 49.524 26.3466C50.1277 26.0767 50.8113 25.9418 51.5748 25.9418C52.3489 25.9418 53.0272 26.0767 53.6096 26.3466C54.1955 26.6129 54.6554 26.984 54.9892 27.4599C55.323 27.9322 55.4952 28.4755 55.5059 29.0898H53.6042Z" fill="#f6866a"/>
</g>
<defs>
<filter id="filter0_d_1_2" x="27.076" y="25.9418" width="29.579" height="16.2234" filterUnits="userSpaceOnUse" color-interpolation-filters="sRGB">
<feFlood flood-opacity="0" result="BackgroundImageFix"/>
<feColorMatrix in="SourceAlpha" type="matrix" values="0 0 0 0 0 0 0 0 0 0 0 0 0 0 0 0 0 0 127 0" result="hardAlpha"/>
<feOffset dy="4"/>
<feGaussianBlur stdDeviation="0.5"/>
<feComposite in2="hardAlpha" operator="out"/>
<feColorMatrix type="matrix" values="0 0 0 0 0 0 0 0 0 0 0 0 0 0 0 0 0 0 0.25 0"/>
<feBlend mode="normal" in2="BackgroundImageFix" result="effect1_dropShadow_1_2"/>
<feBlend mode="normal" in="SourceGraphic" in2="effect1_dropShadow_1_2" result="shape"/>
</filter>
</defs>
</svg>
